%TF.GenerationSoftware,KiCad,Pcbnew,10.0.5-10.0.5~ubuntu24.04.1*%
%TF.CreationDate,2026-08-15T23:39:22+02:00*%
%TF.ProjectId,mark4-fc,6d61726b-342d-4666-932e-6b696361645f,rev?*%
%TF.SameCoordinates,Original*%
%TF.FileFunction,Copper,L1,Top*%
%TF.FilePolarity,Positive*%
%FSLAX46Y46*%
G04 Gerber Fmt 4.6, Leading zero omitted, Abs format (unit mm)*
G04 Created by KiCad (PCBNEW 10.0.5-10.0.5~ubuntu24.04.1) date 2026-08-15 23:39:22*
%MOMM*%
%LPD*%
G01*
G04 APERTURE LIST*
G04 Aperture macros list*
%AMRoundRect*
0 Rectangle with rounded corners*
0 $1 Rounding radius*
0 $2 $3 $4 $5 $6 $7 $8 $9 X,Y pos of 4 corners*
0 Add a 4 corners polygon primitive as box body*
4,1,4,$2,$3,$4,$5,$6,$7,$8,$9,$2,$3,0*
0 Add four circle primitives for the rounded corners*
1,1,$1+$1,$2,$3*
1,1,$1+$1,$4,$5*
1,1,$1+$1,$6,$7*
1,1,$1+$1,$8,$9*
0 Add four rect primitives between the rounded corners*
20,1,$1+$1,$2,$3,$4,$5,0*
20,1,$1+$1,$4,$5,$6,$7,0*
20,1,$1+$1,$6,$7,$8,$9,0*
20,1,$1+$1,$8,$9,$2,$3,0*%
%AMFreePoly0*
4,1,6,1.000000,0.000000,0.500000,-0.750000,-0.500000,-0.750000,-0.500000,0.750000,0.500000,0.750000,1.000000,0.000000,1.000000,0.000000,$1*%
%AMFreePoly1*
4,1,6,0.500000,-0.750000,-0.650000,-0.750000,-0.150000,0.000000,-0.650000,0.750000,0.500000,0.750000,0.500000,-0.750000,0.500000,-0.750000,$1*%
G04 Aperture macros list end*
%TA.AperFunction,SMDPad,CuDef*%
%ADD10RoundRect,0.218750X-0.218750X-0.256250X0.218750X-0.256250X0.218750X0.256250X-0.218750X0.256250X0*%
%TD*%
%TA.AperFunction,SMDPad,CuDef*%
%ADD11RoundRect,0.150000X-0.512500X-0.150000X0.512500X-0.150000X0.512500X0.150000X-0.512500X0.150000X0*%
%TD*%
%TA.AperFunction,SMDPad,CuDef*%
%ADD12RoundRect,0.200000X-0.200000X-0.275000X0.200000X-0.275000X0.200000X0.275000X-0.200000X0.275000X0*%
%TD*%
%TA.AperFunction,SMDPad,CuDef*%
%ADD13RoundRect,0.250000X0.475000X-0.250000X0.475000X0.250000X-0.475000X0.250000X-0.475000X-0.250000X0*%
%TD*%
%TA.AperFunction,SMDPad,CuDef*%
%ADD14RoundRect,0.150000X-0.625000X-0.150000X0.625000X-0.150000X0.625000X0.150000X-0.625000X0.150000X0*%
%TD*%
%TA.AperFunction,SMDPad,CuDef*%
%ADD15RoundRect,0.150000X0.625000X-0.150000X0.625000X0.150000X-0.625000X0.150000X-0.625000X-0.150000X0*%
%TD*%
%TA.AperFunction,SMDPad,CuDef*%
%ADD16RoundRect,0.250000X0.650000X-0.350000X0.650000X0.350000X-0.650000X0.350000X-0.650000X-0.350000X0*%
%TD*%
%TA.AperFunction,SMDPad,CuDef*%
%ADD17RoundRect,0.150000X-0.587500X-0.150000X0.587500X-0.150000X0.587500X0.150000X-0.587500X0.150000X0*%
%TD*%
%TA.AperFunction,SMDPad,CuDef*%
%ADD18RoundRect,0.225000X0.250000X-0.225000X0.250000X0.225000X-0.250000X0.225000X-0.250000X-0.225000X0*%
%TD*%
%TA.AperFunction,SMDPad,CuDef*%
%ADD19RoundRect,0.225000X-0.225000X-0.250000X0.225000X-0.250000X0.225000X0.250000X-0.225000X0.250000X0*%
%TD*%
%TA.AperFunction,SMDPad,CuDef*%
%ADD20C,1.500000*%
%TD*%
%TA.AperFunction,SMDPad,CuDef*%
%ADD21RoundRect,0.250000X-0.250000X-0.475000X0.250000X-0.475000X0.250000X0.475000X-0.250000X0.475000X0*%
%TD*%
%TA.AperFunction,SMDPad,CuDef*%
%ADD22R,0.350000X0.350000*%
%TD*%
%TA.AperFunction,SMDPad,CuDef*%
%ADD23RoundRect,0.249999X0.450001X1.850001X-0.450001X1.850001X-0.450001X-1.850001X0.450001X-1.850001X0*%
%TD*%
%TA.AperFunction,SMDPad,CuDef*%
%ADD24RoundRect,0.150000X0.575000X-0.150000X0.575000X0.150000X-0.575000X0.150000X-0.575000X-0.150000X0*%
%TD*%
%TA.AperFunction,SMDPad,CuDef*%
%ADD25RoundRect,0.075000X0.650000X-0.075000X0.650000X0.075000X-0.650000X0.075000X-0.650000X-0.075000X0*%
%TD*%
%TA.AperFunction,ComponentPad*%
%ADD26O,2.100000X1.000000*%
%TD*%
%TA.AperFunction,ComponentPad*%
%ADD27O,1.600000X1.000000*%
%TD*%
%TA.AperFunction,SMDPad,CuDef*%
%ADD28RoundRect,0.250000X-0.450000X-0.350000X0.450000X-0.350000X0.450000X0.350000X-0.450000X0.350000X0*%
%TD*%
%TA.AperFunction,SMDPad,CuDef*%
%ADD29RoundRect,0.150000X-0.150000X-0.625000X0.150000X-0.625000X0.150000X0.625000X-0.150000X0.625000X0*%
%TD*%
%TA.AperFunction,SMDPad,CuDef*%
%ADD30RoundRect,0.250000X-0.350000X-0.650000X0.350000X-0.650000X0.350000X0.650000X-0.350000X0.650000X0*%
%TD*%
%TA.AperFunction,SMDPad,CuDef*%
%ADD31RoundRect,0.075000X-0.700000X-0.075000X0.700000X-0.075000X0.700000X0.075000X-0.700000X0.075000X0*%
%TD*%
%TA.AperFunction,SMDPad,CuDef*%
%ADD32RoundRect,0.075000X-0.075000X-0.700000X0.075000X-0.700000X0.075000X0.700000X-0.075000X0.700000X0*%
%TD*%
%TA.AperFunction,SMDPad,CuDef*%
%ADD33RoundRect,0.250000X-1.000000X-0.650000X1.000000X-0.650000X1.000000X0.650000X-1.000000X0.650000X0*%
%TD*%
%TA.AperFunction,ComponentPad*%
%ADD34R,1.700000X1.700000*%
%TD*%
%TA.AperFunction,ComponentPad*%
%ADD35C,1.700000*%
%TD*%
%TA.AperFunction,SMDPad,CuDef*%
%ADD36RoundRect,0.375000X0.375000X-0.625000X0.375000X0.625000X-0.375000X0.625000X-0.375000X-0.625000X0*%
%TD*%
%TA.AperFunction,SMDPad,CuDef*%
%ADD37RoundRect,0.500000X1.400000X-0.500000X1.400000X0.500000X-1.400000X0.500000X-1.400000X-0.500000X0*%
%TD*%
%TA.AperFunction,SMDPad,CuDef*%
%ADD38RoundRect,0.250000X-0.262500X-0.450000X0.262500X-0.450000X0.262500X0.450000X-0.262500X0.450000X0*%
%TD*%
%TA.AperFunction,SMDPad,CuDef*%
%ADD39RoundRect,0.250000X0.650000X-1.000000X0.650000X1.000000X-0.650000X1.000000X-0.650000X-1.000000X0*%
%TD*%
%TA.AperFunction,SMDPad,CuDef*%
%ADD40FreePoly0,0.000000*%
%TD*%
%TA.AperFunction,SMDPad,CuDef*%
%ADD41FreePoly1,0.000000*%
%TD*%
%TA.AperFunction,SMDPad,CuDef*%
%ADD42RoundRect,0.150000X0.512500X0.150000X-0.512500X0.150000X-0.512500X-0.150000X0.512500X-0.150000X0*%
%TD*%
%TA.AperFunction,SMDPad,CuDef*%
%ADD43RoundRect,0.250001X-0.899999X-0.899999X0.899999X-0.899999X0.899999X0.899999X-0.899999X0.899999X0*%
%TD*%
%TA.AperFunction,SMDPad,CuDef*%
%ADD44RoundRect,0.225000X-0.225000X-0.375000X0.225000X-0.375000X0.225000X0.375000X-0.225000X0.375000X0*%
%TD*%
%TA.AperFunction,SMDPad,CuDef*%
%ADD45RoundRect,0.087500X-0.225000X-0.087500X0.225000X-0.087500X0.225000X0.087500X-0.225000X0.087500X0*%
%TD*%
%TA.AperFunction,SMDPad,CuDef*%
%ADD46RoundRect,0.087500X-0.087500X-0.225000X0.087500X-0.225000X0.087500X0.225000X-0.087500X0.225000X0*%
%TD*%
%TA.AperFunction,SMDPad,CuDef*%
%ADD47RoundRect,0.150000X-0.625000X0.150000X-0.625000X-0.150000X0.625000X-0.150000X0.625000X0.150000X0*%
%TD*%
%TA.AperFunction,SMDPad,CuDef*%
%ADD48RoundRect,0.250000X-0.650000X0.350000X-0.650000X-0.350000X0.650000X-0.350000X0.650000X0.350000X0*%
%TD*%
G04 APERTURE END LIST*
D10*
%TO.P,D5,1*%
%TO.N,GND*%
X115712500Y-77500000D03*
%TO.P,D5,2*%
%TO.N,Net-(D5-A)*%
X117287500Y-77500000D03*
%TD*%
D11*
%TO.P,U7,1*%
%TO.N,Net-(J2-D--PadA7)*%
X108862500Y-88050000D03*
%TO.P,U7,2*%
%TO.N,GND*%
X108862500Y-89000000D03*
%TO.P,U7,3*%
%TO.N,Net-(J2-D+-PadA6)*%
X108862500Y-89950000D03*
%TO.P,U7,4*%
%TO.N,/USB_DP*%
X111137500Y-89950000D03*
%TO.P,U7,5*%
%TO.N,VBUS*%
X111137500Y-89000000D03*
%TO.P,U7,6*%
%TO.N,/USB_DM*%
X111137500Y-88050000D03*
%TD*%
D12*
%TO.P,R12,1*%
%TO.N,Net-(J2-CC2)*%
X119675000Y-80500000D03*
%TO.P,R12,2*%
%TO.N,GND*%
X121325000Y-80500000D03*
%TD*%
D13*
%TO.P,C3,1*%
%TO.N,/Power/5V_BUCK*%
X99000000Y-107200000D03*
%TO.P,C3,2*%
%TO.N,GND*%
X99000000Y-105300000D03*
%TD*%
D14*
%TO.P,U6,1*%
%TO.N,/FLASH_CS*%
X108350000Y-100595000D03*
%TO.P,U6,2*%
%TO.N,/SPI2_MISO*%
X108350000Y-101865000D03*
%TO.P,U6,3*%
%TO.N,Net-(U6-~{WP}{slash}IO_{2})*%
X108350000Y-103135000D03*
%TO.P,U6,4*%
%TO.N,GND*%
X108350000Y-104405000D03*
%TO.P,U6,5*%
%TO.N,/SPI2_MOSI*%
X115650000Y-104405000D03*
%TO.P,U6,6*%
%TO.N,/SPI2_SCK*%
X115650000Y-103135000D03*
%TO.P,U6,7*%
%TO.N,Net-(U6-~{HOLD}{slash}~{RESET}{slash}IO_{3})*%
X115650000Y-101865000D03*
%TO.P,U6,8*%
%TO.N,+3V3*%
X115650000Y-100595000D03*
%TD*%
D15*
%TO.P,J6,1*%
%TO.N,GND*%
X118500000Y-110000000D03*
%TO.P,J6,2*%
%TO.N,+12V*%
X118500000Y-109000000D03*
%TO.P,J6,3*%
%TO.N,/M4*%
X118500000Y-108000000D03*
%TO.P,J6,4*%
%TO.N,/M3*%
X118500000Y-107000000D03*
%TO.P,J6,5*%
%TO.N,/M2*%
X118500000Y-106000000D03*
%TO.P,J6,6*%
%TO.N,/M1*%
X118500000Y-105000000D03*
%TO.P,J6,7*%
%TO.N,/CURR_SENSE*%
X118500000Y-104000000D03*
%TO.P,J6,8*%
%TO.N,/UART2_RX*%
X118500000Y-103000000D03*
D16*
%TO.P,J6,MP*%
%TO.N,N/C*%
X122375000Y-111300000D03*
X122375000Y-101700000D03*
%TD*%
D17*
%TO.P,Q1,1*%
%TO.N,Net-(Q1-B)*%
X84062500Y-103550000D03*
%TO.P,Q1,2*%
%TO.N,GND*%
X84062500Y-105450000D03*
%TO.P,Q1,3*%
%TO.N,Net-(BZ1--)*%
X85937500Y-104500000D03*
%TD*%
D18*
%TO.P,C14,1*%
%TO.N,+3V3*%
X92250000Y-93275000D03*
%TO.P,C14,2*%
%TO.N,GND*%
X92250000Y-91725000D03*
%TD*%
D12*
%TO.P,R5,1*%
%TO.N,Net-(U5-SDO)*%
X87175000Y-100000000D03*
%TO.P,R5,2*%
%TO.N,GND*%
X88825000Y-100000000D03*
%TD*%
D19*
%TO.P,C8,1*%
%TO.N,+3V3*%
X94725000Y-97250000D03*
%TO.P,C8,2*%
%TO.N,GND*%
X96275000Y-97250000D03*
%TD*%
D18*
%TO.P,C18,1*%
%TO.N,/MCU/OSC_IN*%
X88250000Y-90025000D03*
%TO.P,C18,2*%
%TO.N,GND*%
X88250000Y-88475000D03*
%TD*%
D20*
%TO.P,TP4,1*%
%TO.N,Net-(U3-PD2)*%
X89500000Y-78000000D03*
%TD*%
D19*
%TO.P,C22,1*%
%TO.N,+3V3*%
X87225000Y-98000000D03*
%TO.P,C22,2*%
%TO.N,GND*%
X88775000Y-98000000D03*
%TD*%
D21*
%TO.P,C16,1*%
%TO.N,Net-(U3-VCAP_1)*%
X101300000Y-97250000D03*
%TO.P,C16,2*%
%TO.N,GND*%
X103200000Y-97250000D03*
%TD*%
D20*
%TO.P,TP5,1*%
%TO.N,/UART2_TX*%
X88000000Y-95750000D03*
%TD*%
D19*
%TO.P,C23,1*%
%TO.N,+3V3*%
X87225000Y-101750000D03*
%TO.P,C23,2*%
%TO.N,GND*%
X88775000Y-101750000D03*
%TD*%
D18*
%TO.P,C17,1*%
%TO.N,/MCU/NRST*%
X92250000Y-90025000D03*
%TO.P,C17,2*%
%TO.N,GND*%
X92250000Y-88475000D03*
%TD*%
D22*
%TO.P,U5,1*%
%TO.N,GND*%
X83025000Y-99275000D03*
%TO.P,U5,2*%
%TO.N,+3V3*%
X83675000Y-99275000D03*
%TO.P,U5,3*%
%TO.N,/I2C1_SDA*%
X84325000Y-99275000D03*
%TO.P,U5,4*%
%TO.N,/I2C1_SCL*%
X84975000Y-99275000D03*
%TO.P,U5,5*%
%TO.N,Net-(U5-SDO)*%
X84975000Y-100725000D03*
%TO.P,U5,6*%
%TO.N,+3V3*%
X84325000Y-100725000D03*
%TO.P,U5,7*%
%TO.N,GND*%
X83675000Y-100725000D03*
%TO.P,U5,8*%
%TO.N,+3V3*%
X83025000Y-100725000D03*
%TD*%
D21*
%TO.P,C6,1*%
%TO.N,+3V3*%
X107550000Y-113250000D03*
%TO.P,C6,2*%
%TO.N,GND*%
X109450000Y-113250000D03*
%TD*%
D19*
%TO.P,C9,1*%
%TO.N,+3V3*%
X104975000Y-97250000D03*
%TO.P,C9,2*%
%TO.N,GND*%
X106525000Y-97250000D03*
%TD*%
%TO.P,C10,1*%
%TO.N,+3V3*%
X108725000Y-85500000D03*
%TO.P,C10,2*%
%TO.N,GND*%
X110275000Y-85500000D03*
%TD*%
D12*
%TO.P,R14,1*%
%TO.N,/LED2*%
X115675000Y-80000000D03*
%TO.P,R14,2*%
%TO.N,Net-(D5-A)*%
X117325000Y-80000000D03*
%TD*%
D21*
%TO.P,C25,1*%
%TO.N,VBUS*%
X109050000Y-92500000D03*
%TO.P,C25,2*%
%TO.N,GND*%
X110950000Y-92500000D03*
%TD*%
D23*
%TO.P,L1,1*%
%TO.N,/Power/SW*%
X104850000Y-109000000D03*
%TO.P,L1,2*%
%TO.N,/Power/5V_BUCK*%
X101150000Y-109000000D03*
%TD*%
D18*
%TO.P,C19,1*%
%TO.N,/MCU/OSC_OUT*%
X90250000Y-90025000D03*
%TO.P,C19,2*%
%TO.N,GND*%
X90250000Y-88475000D03*
%TD*%
D24*
%TO.P,J2,A1*%
%TO.N,GND*%
X115705000Y-96500000D03*
%TO.P,J2,A4*%
%TO.N,VBUS*%
X115705000Y-95700000D03*
D25*
%TO.P,J2,A5*%
%TO.N,Net-(J2-CC1)*%
X115705000Y-94500000D03*
%TO.P,J2,A6*%
%TO.N,Net-(J2-D+-PadA6)*%
X115705000Y-93500000D03*
%TO.P,J2,A7*%
%TO.N,Net-(J2-D--PadA7)*%
X115705000Y-93000000D03*
%TO.P,J2,A8*%
%TO.N,unconnected-(J2-SBU1-PadA8)*%
X115705000Y-92000000D03*
D24*
%TO.P,J2,A9*%
%TO.N,VBUS*%
X115705000Y-90800000D03*
%TO.P,J2,A12*%
%TO.N,GND*%
X115705000Y-90000000D03*
%TO.P,J2,B1*%
X115705000Y-90000000D03*
%TO.P,J2,B4*%
%TO.N,VBUS*%
X115705000Y-90800000D03*
D25*
%TO.P,J2,B5*%
%TO.N,Net-(J2-CC2)*%
X115705000Y-91500000D03*
%TO.P,J2,B6*%
%TO.N,Net-(J2-D+-PadA6)*%
X115705000Y-92500000D03*
%TO.P,J2,B7*%
%TO.N,Net-(J2-D--PadA7)*%
X115705000Y-94000000D03*
%TO.P,J2,B8*%
%TO.N,unconnected-(J2-SBU2-PadB8)*%
X115705000Y-95000000D03*
D24*
%TO.P,J2,B9*%
%TO.N,VBUS*%
X115705000Y-95700000D03*
%TO.P,J2,B12*%
%TO.N,GND*%
X115705000Y-96500000D03*
D26*
%TO.P,J2,SH*%
X116620000Y-97570000D03*
D27*
X120800000Y-97570000D03*
D26*
X116620000Y-88930000D03*
D27*
X120800000Y-88930000D03*
%TD*%
D28*
%TO.P,Y1,1*%
%TO.N,/MCU/OSC_IN*%
X89150000Y-86350000D03*
%TO.P,Y1,2*%
%TO.N,GND*%
X91350000Y-86350000D03*
%TO.P,Y1,3*%
%TO.N,/MCU/OSC_OUT*%
X91350000Y-84650000D03*
%TO.P,Y1,4*%
%TO.N,GND*%
X89150000Y-84650000D03*
%TD*%
D18*
%TO.P,C21,1*%
%TO.N,+3V3*%
X104500000Y-101775000D03*
%TO.P,C21,2*%
%TO.N,GND*%
X104500000Y-100225000D03*
%TD*%
D12*
%TO.P,R11,1*%
%TO.N,Net-(J2-CC1)*%
X119675000Y-78000000D03*
%TO.P,R11,2*%
%TO.N,GND*%
X121325000Y-78000000D03*
%TD*%
D10*
%TO.P,D4,1*%
%TO.N,GND*%
X111712500Y-77500000D03*
%TO.P,D4,2*%
%TO.N,Net-(D4-A)*%
X113287500Y-77500000D03*
%TD*%
D12*
%TO.P,R9,1*%
%TO.N,+3V3*%
X108175000Y-95000000D03*
%TO.P,R9,2*%
%TO.N,Net-(U6-~{WP}{slash}IO_{2})*%
X109825000Y-95000000D03*
%TD*%
D29*
%TO.P,J5,1*%
%TO.N,GND*%
X98000000Y-118500000D03*
%TO.P,J5,2*%
%TO.N,+5V*%
X99000000Y-118500000D03*
%TO.P,J5,3*%
%TO.N,/UART3_RX*%
X100000000Y-118500000D03*
%TO.P,J5,4*%
%TO.N,/UART3_TX*%
X101000000Y-118500000D03*
D30*
%TO.P,J5,MP*%
%TO.N,N/C*%
X96700000Y-122375000D03*
X102300000Y-122375000D03*
%TD*%
D12*
%TO.P,R3,1*%
%TO.N,/MCU/BOOT0*%
X81175000Y-78000000D03*
%TO.P,R3,2*%
%TO.N,GND*%
X82825000Y-78000000D03*
%TD*%
D20*
%TO.P,TP3,1*%
%TO.N,Net-(U3-PB4)*%
X86000000Y-78000000D03*
%TD*%
D31*
%TO.P,U3,1*%
%TO.N,+3V3*%
X94325000Y-84750000D03*
%TO.P,U3,2*%
%TO.N,unconnected-(U3-PC13-Pad2)*%
X94325000Y-85250000D03*
%TO.P,U3,3*%
%TO.N,unconnected-(U3-PC14-Pad3)*%
X94325000Y-85750000D03*
%TO.P,U3,4*%
%TO.N,unconnected-(U3-PC15-Pad4)*%
X94325000Y-86250000D03*
%TO.P,U3,5*%
%TO.N,/MCU/OSC_IN*%
X94325000Y-86750000D03*
%TO.P,U3,6*%
%TO.N,/MCU/OSC_OUT*%
X94325000Y-87250000D03*
%TO.P,U3,7*%
%TO.N,/MCU/NRST*%
X94325000Y-87750000D03*
%TO.P,U3,8*%
%TO.N,/12V_SENSE*%
X94325000Y-88250000D03*
%TO.P,U3,9*%
%TO.N,/CURR_SENSE*%
X94325000Y-88750000D03*
%TO.P,U3,10*%
%TO.N,unconnected-(U3-PC2-Pad10)*%
X94325000Y-89250000D03*
%TO.P,U3,11*%
%TO.N,unconnected-(U3-PC3-Pad11)*%
X94325000Y-89750000D03*
%TO.P,U3,12*%
%TO.N,GND*%
X94325000Y-90250000D03*
%TO.P,U3,13*%
%TO.N,+3V3*%
X94325000Y-90750000D03*
%TO.P,U3,14*%
%TO.N,/UART4_TX*%
X94325000Y-91250000D03*
%TO.P,U3,15*%
%TO.N,/UART4_RX*%
X94325000Y-91750000D03*
%TO.P,U3,16*%
%TO.N,/UART2_TX*%
X94325000Y-92250000D03*
D32*
%TO.P,U3,17*%
%TO.N,/UART2_RX*%
X96250000Y-94175000D03*
%TO.P,U3,18*%
%TO.N,GND*%
X96750000Y-94175000D03*
%TO.P,U3,19*%
%TO.N,+3V3*%
X97250000Y-94175000D03*
%TO.P,U3,20*%
%TO.N,/IMU_CS*%
X97750000Y-94175000D03*
%TO.P,U3,21*%
%TO.N,/SPI1_SCK*%
X98250000Y-94175000D03*
%TO.P,U3,22*%
%TO.N,/SPI1_MISO*%
X98750000Y-94175000D03*
%TO.P,U3,23*%
%TO.N,/SPI1_MOSI*%
X99250000Y-94175000D03*
%TO.P,U3,24*%
%TO.N,/IMU_INT1*%
X99750000Y-94175000D03*
%TO.P,U3,25*%
%TO.N,/LED1*%
X100250000Y-94175000D03*
%TO.P,U3,26*%
%TO.N,/LED2*%
X100750000Y-94175000D03*
%TO.P,U3,27*%
%TO.N,Net-(U3-PB2)*%
X101250000Y-94175000D03*
%TO.P,U3,28*%
%TO.N,/UART3_TX*%
X101750000Y-94175000D03*
%TO.P,U3,29*%
%TO.N,/UART3_RX*%
X102250000Y-94175000D03*
%TO.P,U3,30*%
%TO.N,Net-(U3-VCAP_1)*%
X102750000Y-94175000D03*
%TO.P,U3,31*%
%TO.N,GND*%
X103250000Y-94175000D03*
%TO.P,U3,32*%
%TO.N,+3V3*%
X103750000Y-94175000D03*
D31*
%TO.P,U3,33*%
%TO.N,/FLASH_CS*%
X105675000Y-92250000D03*
%TO.P,U3,34*%
%TO.N,/SPI2_SCK*%
X105675000Y-91750000D03*
%TO.P,U3,35*%
%TO.N,/SPI2_MISO*%
X105675000Y-91250000D03*
%TO.P,U3,36*%
%TO.N,/SPI2_MOSI*%
X105675000Y-90750000D03*
%TO.P,U3,37*%
%TO.N,/M1*%
X105675000Y-90250000D03*
%TO.P,U3,38*%
%TO.N,/M2*%
X105675000Y-89750000D03*
%TO.P,U3,39*%
%TO.N,/M3*%
X105675000Y-89250000D03*
%TO.P,U3,40*%
%TO.N,/M4*%
X105675000Y-88750000D03*
%TO.P,U3,41*%
%TO.N,Net-(U3-PA8)*%
X105675000Y-88250000D03*
%TO.P,U3,42*%
%TO.N,unconnected-(U3-PA9-Pad42)*%
X105675000Y-87750000D03*
%TO.P,U3,43*%
%TO.N,unconnected-(U3-PA10-Pad43)*%
X105675000Y-87250000D03*
%TO.P,U3,44*%
%TO.N,/USB_DM*%
X105675000Y-86750000D03*
%TO.P,U3,45*%
%TO.N,/USB_DP*%
X105675000Y-86250000D03*
%TO.P,U3,46*%
%TO.N,/MCU/SWDIO*%
X105675000Y-85750000D03*
%TO.P,U3,47*%
%TO.N,GND*%
X105675000Y-85250000D03*
%TO.P,U3,48*%
%TO.N,+3V3*%
X105675000Y-84750000D03*
D32*
%TO.P,U3,49*%
%TO.N,/MCU/SWCLK*%
X103750000Y-82825000D03*
%TO.P,U3,50*%
%TO.N,unconnected-(U3-PA15-Pad50)*%
X103250000Y-82825000D03*
%TO.P,U3,51*%
%TO.N,unconnected-(U3-PC10-Pad51)*%
X102750000Y-82825000D03*
%TO.P,U3,52*%
%TO.N,unconnected-(U3-PC11-Pad52)*%
X102250000Y-82825000D03*
%TO.P,U3,53*%
%TO.N,unconnected-(U3-PC12-Pad53)*%
X101750000Y-82825000D03*
%TO.P,U3,54*%
%TO.N,Net-(U3-PD2)*%
X101250000Y-82825000D03*
%TO.P,U3,55*%
%TO.N,/MCU/SWO*%
X100750000Y-82825000D03*
%TO.P,U3,56*%
%TO.N,Net-(U3-PB4)*%
X100250000Y-82825000D03*
%TO.P,U3,57*%
%TO.N,/BUZZER*%
X99750000Y-82825000D03*
%TO.P,U3,58*%
%TO.N,/UART1_TX*%
X99250000Y-82825000D03*
%TO.P,U3,59*%
%TO.N,/UART1_RX*%
X98750000Y-82825000D03*
%TO.P,U3,60*%
%TO.N,/MCU/BOOT0*%
X98250000Y-82825000D03*
%TO.P,U3,61*%
%TO.N,/I2C1_SCL*%
X97750000Y-82825000D03*
%TO.P,U3,62*%
%TO.N,/I2C1_SDA*%
X97250000Y-82825000D03*
%TO.P,U3,63*%
%TO.N,GND*%
X96750000Y-82825000D03*
%TO.P,U3,64*%
%TO.N,+3V3*%
X96250000Y-82825000D03*
%TD*%
D19*
%TO.P,C11,1*%
%TO.N,+3V3*%
X93725000Y-80750000D03*
%TO.P,C11,2*%
%TO.N,GND*%
X95275000Y-80750000D03*
%TD*%
D13*
%TO.P,C2,1*%
%TO.N,+12V*%
X114500000Y-108450000D03*
%TO.P,C2,2*%
%TO.N,GND*%
X114500000Y-106550000D03*
%TD*%
D12*
%TO.P,R15,1*%
%TO.N,/BUZZER*%
X84175000Y-107500000D03*
%TO.P,R15,2*%
%TO.N,Net-(Q1-B)*%
X85825000Y-107500000D03*
%TD*%
D33*
%TO.P,D1,1*%
%TO.N,+5V*%
X113250000Y-120500000D03*
%TO.P,D1,2*%
%TO.N,/Power/5V_BUCK*%
X117250000Y-120500000D03*
%TD*%
D29*
%TO.P,J3,1*%
%TO.N,GND*%
X90000000Y-118500000D03*
%TO.P,J3,2*%
%TO.N,+5V*%
X91000000Y-118500000D03*
%TO.P,J3,3*%
%TO.N,/UART1_RX*%
X92000000Y-118500000D03*
%TO.P,J3,4*%
%TO.N,/UART1_TX*%
X93000000Y-118500000D03*
D30*
%TO.P,J3,MP*%
%TO.N,N/C*%
X88700000Y-122375000D03*
X94300000Y-122375000D03*
%TD*%
D18*
%TO.P,C20,1*%
%TO.N,+3V3*%
X95500000Y-101775000D03*
%TO.P,C20,2*%
%TO.N,GND*%
X95500000Y-100225000D03*
%TD*%
D34*
%TO.P,J1,1*%
%TO.N,+3V3*%
X108000000Y-78000000D03*
D35*
%TO.P,J1,2*%
%TO.N,/MCU/SWCLK*%
X105460000Y-78000000D03*
%TO.P,J1,3*%
%TO.N,GND*%
X102920000Y-78000000D03*
%TO.P,J1,4*%
%TO.N,/MCU/SWDIO*%
X100380000Y-78000000D03*
%TO.P,J1,5*%
%TO.N,/MCU/NRST*%
X97840000Y-78000000D03*
%TO.P,J1,6*%
%TO.N,/MCU/SWO*%
X95300000Y-78000000D03*
%TD*%
D36*
%TO.P,U2,1*%
%TO.N,GND*%
X105200000Y-122150000D03*
%TO.P,U2,2*%
%TO.N,+3V3*%
X107500000Y-122150000D03*
D37*
X107500000Y-115850000D03*
D36*
%TO.P,U2,3*%
%TO.N,+5V*%
X109800000Y-122150000D03*
%TD*%
D12*
%TO.P,R10,1*%
%TO.N,+3V3*%
X111675000Y-95000000D03*
%TO.P,R10,2*%
%TO.N,Net-(U6-~{HOLD}{slash}~{RESET}{slash}IO_{3})*%
X113325000Y-95000000D03*
%TD*%
%TO.P,R1,1*%
%TO.N,+12V*%
X78675000Y-88000000D03*
%TO.P,R1,2*%
%TO.N,/12V_SENSE*%
X80325000Y-88000000D03*
%TD*%
D38*
%TO.P,R17,1*%
%TO.N,+5V*%
X83837500Y-111250000D03*
%TO.P,R17,2*%
%TO.N,Net-(BZ1-+)*%
X85662500Y-111250000D03*
%TD*%
D20*
%TO.P,TP1,1*%
%TO.N,Net-(U3-PA8)*%
X120500000Y-83500000D03*
%TD*%
D21*
%TO.P,C12,1*%
%TO.N,+3V3*%
X108550000Y-82500000D03*
%TO.P,C12,2*%
%TO.N,GND*%
X110450000Y-82500000D03*
%TD*%
D12*
%TO.P,R2,1*%
%TO.N,/12V_SENSE*%
X78675000Y-90000000D03*
%TO.P,R2,2*%
%TO.N,GND*%
X80325000Y-90000000D03*
%TD*%
%TO.P,R13,1*%
%TO.N,/LED1*%
X111675000Y-80000000D03*
%TO.P,R13,2*%
%TO.N,Net-(D4-A)*%
X113325000Y-80000000D03*
%TD*%
D19*
%TO.P,C24,1*%
%TO.N,+3V3*%
X108225000Y-97000000D03*
%TO.P,C24,2*%
%TO.N,GND*%
X109775000Y-97000000D03*
%TD*%
D12*
%TO.P,R8,1*%
%TO.N,+3V3*%
X111675000Y-97000000D03*
%TO.P,R8,2*%
%TO.N,/FLASH_CS*%
X113325000Y-97000000D03*
%TD*%
D39*
%TO.P,D2,1*%
%TO.N,+5V*%
X121000000Y-121500000D03*
%TO.P,D2,2*%
%TO.N,VBUS*%
X121000000Y-117500000D03*
%TD*%
D19*
%TO.P,C7,1*%
%TO.N,/12V_SENSE*%
X78725000Y-92000000D03*
%TO.P,C7,2*%
%TO.N,GND*%
X80275000Y-92000000D03*
%TD*%
D13*
%TO.P,C4,1*%
%TO.N,/Power/5V_BUCK*%
X99000000Y-113450000D03*
%TO.P,C4,2*%
%TO.N,GND*%
X99000000Y-111550000D03*
%TD*%
D19*
%TO.P,C1,1*%
%TO.N,Net-(U1-BST)*%
X108725000Y-110500000D03*
%TO.P,C1,2*%
%TO.N,/Power/SW*%
X110275000Y-110500000D03*
%TD*%
D40*
%TO.P,JP1,1*%
%TO.N,+3V3*%
X77775000Y-78000000D03*
D41*
%TO.P,JP1,2*%
%TO.N,/MCU/BOOT0*%
X79225000Y-78000000D03*
%TD*%
D42*
%TO.P,U1,1*%
%TO.N,/Power/5V_BUCK*%
X110637500Y-108450000D03*
%TO.P,U1,2*%
%TO.N,+12V*%
X110637500Y-107500000D03*
%TO.P,U1,3*%
X110637500Y-106550000D03*
%TO.P,U1,4*%
%TO.N,GND*%
X108362500Y-106550000D03*
%TO.P,U1,5*%
%TO.N,/Power/SW*%
X108362500Y-107500000D03*
%TO.P,U1,6*%
%TO.N,Net-(U1-BST)*%
X108362500Y-108450000D03*
%TD*%
D43*
%TO.P,BZ1,*%
%TO.N,*%
X96300000Y-106450000D03*
X96300000Y-113550000D03*
%TO.P,BZ1,1*%
%TO.N,Net-(BZ1-+)*%
X89200000Y-106450000D03*
%TO.P,BZ1,2*%
%TO.N,Net-(BZ1--)*%
X89200000Y-113550000D03*
%TD*%
D21*
%TO.P,C5,1*%
%TO.N,+5V*%
X103550000Y-113250000D03*
%TO.P,C5,2*%
%TO.N,GND*%
X105450000Y-113250000D03*
%TD*%
D12*
%TO.P,R6,1*%
%TO.N,+3V3*%
X90675000Y-96750000D03*
%TO.P,R6,2*%
%TO.N,/I2C1_SCL*%
X92325000Y-96750000D03*
%TD*%
D19*
%TO.P,C15,1*%
%TO.N,+3V3*%
X88225000Y-92500000D03*
%TO.P,C15,2*%
%TO.N,GND*%
X89775000Y-92500000D03*
%TD*%
D44*
%TO.P,D3,1*%
%TO.N,/12V_SENSE*%
X78100000Y-94250000D03*
%TO.P,D3,2*%
%TO.N,GND*%
X81400000Y-94250000D03*
%TD*%
%TO.P,D6,1*%
%TO.N,Net-(BZ1-+)*%
X82850000Y-121000000D03*
%TO.P,D6,2*%
%TO.N,Net-(BZ1--)*%
X86150000Y-121000000D03*
%TD*%
D12*
%TO.P,R4,1*%
%TO.N,/IMU_INT1*%
X99175000Y-103500000D03*
%TO.P,R4,2*%
%TO.N,GND*%
X100825000Y-103500000D03*
%TD*%
%TO.P,R7,1*%
%TO.N,+3V3*%
X90675000Y-99000000D03*
%TO.P,R7,2*%
%TO.N,/I2C1_SDA*%
X92325000Y-99000000D03*
%TD*%
D45*
%TO.P,U4,1*%
%TO.N,/SPI1_MISO*%
X98837500Y-99250000D03*
%TO.P,U4,2*%
%TO.N,GND*%
X98837500Y-99750000D03*
%TO.P,U4,3*%
X98837500Y-100250000D03*
%TO.P,U4,4*%
%TO.N,/IMU_INT1*%
X98837500Y-100750000D03*
D46*
%TO.P,U4,5*%
%TO.N,+3V3*%
X99500000Y-100912500D03*
%TO.P,U4,6*%
%TO.N,GND*%
X100000000Y-100912500D03*
%TO.P,U4,7*%
X100500000Y-100912500D03*
D45*
%TO.P,U4,8*%
%TO.N,+3V3*%
X101162500Y-100750000D03*
%TO.P,U4,9*%
%TO.N,unconnected-(U4-INT2-Pad9)*%
X101162500Y-100250000D03*
%TO.P,U4,10*%
%TO.N,unconnected-(U4-OCS_Aux-Pad10)*%
X101162500Y-99750000D03*
%TO.P,U4,11*%
%TO.N,unconnected-(U4-SDO_Aux-Pad11)*%
X101162500Y-99250000D03*
D46*
%TO.P,U4,12*%
%TO.N,/IMU_CS*%
X100500000Y-99087500D03*
%TO.P,U4,13*%
%TO.N,/SPI1_SCK*%
X100000000Y-99087500D03*
%TO.P,U4,14*%
%TO.N,/SPI1_MOSI*%
X99500000Y-99087500D03*
%TD*%
D19*
%TO.P,C13,1*%
%TO.N,+3V3*%
X90225000Y-81500000D03*
%TO.P,C13,2*%
%TO.N,GND*%
X91775000Y-81500000D03*
%TD*%
D12*
%TO.P,R16,1*%
%TO.N,Net-(Q1-B)*%
X84175000Y-109250000D03*
%TO.P,R16,2*%
%TO.N,GND*%
X85825000Y-109250000D03*
%TD*%
D20*
%TO.P,TP2,1*%
%TO.N,Net-(U3-PB2)*%
X104000000Y-104000000D03*
%TD*%
D47*
%TO.P,J4,1*%
%TO.N,GND*%
X81500000Y-105000000D03*
%TO.P,J4,2*%
%TO.N,+3V3*%
X81500000Y-106000000D03*
%TO.P,J4,3*%
%TO.N,/UART4_TX*%
X81500000Y-107000000D03*
%TO.P,J4,4*%
%TO.N,/UART4_RX*%
X81500000Y-108000000D03*
%TO.P,J4,5*%
%TO.N,/I2C1_SCL*%
X81500000Y-109000000D03*
%TO.P,J4,6*%
%TO.N,/I2C1_SDA*%
X81500000Y-110000000D03*
D48*
%TO.P,J4,MP*%
%TO.N,N/C*%
X77625000Y-103700000D03*
X77625000Y-111300000D03*
%TD*%
M02*
