%TF.GenerationSoftware,KiCad,Pcbnew,10.0.5-10.0.5~ubuntu24.04.1*%
%TF.CreationDate,2026-08-18T20:56:55+02:00*%
%TF.ProjectId,mark4-fc,6d61726b-342d-4666-932e-6b696361645f,rev?*%
%TF.SameCoordinates,Original*%
%TF.FileFunction,Copper,L4,Bot*%
%TF.FilePolarity,Positive*%
%FSLAX46Y46*%
G04 Gerber Fmt 4.6, Leading zero omitted, Abs format (unit mm)*
G04 Created by KiCad (PCBNEW 10.0.5-10.0.5~ubuntu24.04.1) date 2026-08-18 20:56:55*
%MOMM*%
%LPD*%
G01*
G04 APERTURE LIST*
G04 Aperture macros list*
%AMRoundRect*
0 Rectangle with rounded corners*
0 $1 Rounding radius*
0 $2 $3 $4 $5 $6 $7 $8 $9 X,Y pos of 4 corners*
0 Add a 4 corners polygon primitive as box body*
4,1,4,$2,$3,$4,$5,$6,$7,$8,$9,$2,$3,0*
0 Add four circle primitives for the rounded corners*
1,1,$1+$1,$2,$3*
1,1,$1+$1,$4,$5*
1,1,$1+$1,$6,$7*
1,1,$1+$1,$8,$9*
0 Add four rect primitives between the rounded corners*
20,1,$1+$1,$2,$3,$4,$5,0*
20,1,$1+$1,$4,$5,$6,$7,0*
20,1,$1+$1,$6,$7,$8,$9,0*
20,1,$1+$1,$8,$9,$2,$3,0*%
%AMFreePoly0*
4,1,6,1.000000,0.000000,0.500000,-0.750000,-0.500000,-0.750000,-0.500000,0.750000,0.500000,0.750000,1.000000,0.000000,1.000000,0.000000,$1*%
%AMFreePoly1*
4,1,6,0.500000,-0.750000,-0.650000,-0.750000,-0.150000,0.000000,-0.650000,0.750000,0.500000,0.750000,0.500000,-0.750000,0.500000,-0.750000,$1*%
G04 Aperture macros list end*
%TA.AperFunction,ComponentPad*%
%ADD10C,1.600000*%
%TD*%
%TA.AperFunction,ComponentPad*%
%ADD11O,1.000000X2.100000*%
%TD*%
%TA.AperFunction,ComponentPad*%
%ADD12O,1.000000X1.600000*%
%TD*%
%TA.AperFunction,ComponentPad*%
%ADD13R,1.700000X1.700000*%
%TD*%
%TA.AperFunction,ComponentPad*%
%ADD14C,1.700000*%
%TD*%
%TA.AperFunction,SMDPad,CuDef*%
%ADD15RoundRect,0.200000X-0.200000X-0.275000X0.200000X-0.275000X0.200000X0.275000X-0.200000X0.275000X0*%
%TD*%
%TA.AperFunction,SMDPad,CuDef*%
%ADD16C,1.500000*%
%TD*%
%TA.AperFunction,SMDPad,CuDef*%
%ADD17RoundRect,0.225000X-0.225000X-0.375000X0.225000X-0.375000X0.225000X0.375000X-0.225000X0.375000X0*%
%TD*%
%TA.AperFunction,SMDPad,CuDef*%
%ADD18RoundRect,0.150000X-0.150000X-0.625000X0.150000X-0.625000X0.150000X0.625000X-0.150000X0.625000X0*%
%TD*%
%TA.AperFunction,SMDPad,CuDef*%
%ADD19RoundRect,0.250000X-0.350000X-0.650000X0.350000X-0.650000X0.350000X0.650000X-0.350000X0.650000X0*%
%TD*%
%TA.AperFunction,SMDPad,CuDef*%
%ADD20RoundRect,0.200000X-0.275000X0.200000X-0.275000X-0.200000X0.275000X-0.200000X0.275000X0.200000X0*%
%TD*%
%TA.AperFunction,SMDPad,CuDef*%
%ADD21RoundRect,0.375000X0.375000X-0.625000X0.375000X0.625000X-0.375000X0.625000X-0.375000X-0.625000X0*%
%TD*%
%TA.AperFunction,SMDPad,CuDef*%
%ADD22RoundRect,0.500000X1.400000X-0.500000X1.400000X0.500000X-1.400000X0.500000X-1.400000X-0.500000X0*%
%TD*%
%TA.AperFunction,SMDPad,CuDef*%
%ADD23RoundRect,0.150000X-0.587500X-0.150000X0.587500X-0.150000X0.587500X0.150000X-0.587500X0.150000X0*%
%TD*%
%TA.AperFunction,SMDPad,CuDef*%
%ADD24FreePoly0,270.000000*%
%TD*%
%TA.AperFunction,SMDPad,CuDef*%
%ADD25FreePoly1,270.000000*%
%TD*%
%TA.AperFunction,SMDPad,CuDef*%
%ADD26RoundRect,0.150000X-0.625000X-0.150000X0.625000X-0.150000X0.625000X0.150000X-0.625000X0.150000X0*%
%TD*%
%TA.AperFunction,SMDPad,CuDef*%
%ADD27RoundRect,0.250001X-0.899999X-0.899999X0.899999X-0.899999X0.899999X0.899999X-0.899999X0.899999X0*%
%TD*%
%TA.AperFunction,SMDPad,CuDef*%
%ADD28RoundRect,0.250000X-0.262500X-0.450000X0.262500X-0.450000X0.262500X0.450000X-0.262500X0.450000X0*%
%TD*%
G04 APERTURE END LIST*
D10*
%TO.P,J45,1*%
%TO.N,/M3*%
X102540000Y-83600000D03*
%TD*%
%TO.P,J48,1*%
%TO.N,/UART2_RX*%
X110160000Y-83600000D03*
%TD*%
%TO.P,J12,1*%
%TO.N,/UART1_RX*%
X116400000Y-106080000D03*
%TD*%
%TO.P,J47,1*%
%TO.N,/CURR_SENSE*%
X107620000Y-83600000D03*
%TD*%
%TO.P,J32,1*%
%TO.N,/UART3_RX*%
X116400000Y-93580000D03*
%TD*%
%TO.P,J42,1*%
%TO.N,VBAT*%
X94920000Y-83600000D03*
%TD*%
%TO.P,J26,1*%
%TO.N,+3V3*%
X83600000Y-103740000D03*
%TD*%
%TO.P,J31,1*%
%TO.N,+5V*%
X116400000Y-91040000D03*
%TD*%
%TO.P,J11,1*%
%TO.N,+5V*%
X116400000Y-103540000D03*
%TD*%
%TO.P,J46,1*%
%TO.N,/M4*%
X105080000Y-83600000D03*
%TD*%
D11*
%TO.P,J2,SH*%
%TO.N,GND*%
X88830000Y-110575001D03*
D12*
X88830000Y-114755001D03*
D11*
X97470000Y-110575001D03*
D12*
X97470000Y-114755001D03*
%TD*%
D10*
%TO.P,J20,1*%
%TO.N,GND*%
X83600000Y-88500000D03*
%TD*%
%TO.P,J22,1*%
%TO.N,/UART4_TX*%
X83600000Y-93580000D03*
%TD*%
D13*
%TO.P,J1,1*%
%TO.N,/MCU/SWDIO*%
X101960000Y-115685000D03*
D14*
%TO.P,J1,2*%
%TO.N,/MCU/SWCLK*%
X104500000Y-115685000D03*
%TO.P,J1,3*%
%TO.N,GND*%
X107040000Y-115685000D03*
%TD*%
D10*
%TO.P,J52,1*%
%TO.N,Net-(J52-Pin_1)*%
X83600000Y-111360000D03*
%TD*%
%TO.P,J13,1*%
%TO.N,/UART1_TX*%
X116400000Y-108620000D03*
%TD*%
%TO.P,J43,1*%
%TO.N,/M1*%
X97460000Y-83600000D03*
%TD*%
%TO.P,J33,1*%
%TO.N,/UART3_TX*%
X116400000Y-96120000D03*
%TD*%
%TO.P,J41,1*%
%TO.N,+10V*%
X92380000Y-83600000D03*
%TD*%
%TO.P,J23,1*%
%TO.N,/UART4_RX*%
X83600000Y-96120000D03*
%TD*%
%TO.P,J24,1*%
%TO.N,/I2C1_SCL*%
X83600000Y-98660000D03*
%TD*%
%TO.P,J40,1*%
%TO.N,GND*%
X89840000Y-83600000D03*
%TD*%
%TO.P,J21,1*%
%TO.N,+5V*%
X83600000Y-91040000D03*
%TD*%
%TO.P,J44,1*%
%TO.N,/M2*%
X100000000Y-83600000D03*
%TD*%
%TO.P,J50,1*%
%TO.N,GND*%
X83600000Y-106280000D03*
%TD*%
%TO.P,J51,1*%
%TO.N,+5V_BUCK*%
X83600000Y-108820000D03*
%TD*%
%TO.P,J25,1*%
%TO.N,/I2C1_SDA*%
X83600000Y-101200000D03*
%TD*%
%TO.P,J10,1*%
%TO.N,GND*%
X116400000Y-101000000D03*
%TD*%
%TO.P,J30,1*%
%TO.N,GND*%
X116400000Y-88500000D03*
%TD*%
D15*
%TO.P,R15,1*%
%TO.N,/BUZZER*%
X99159349Y-92292433D03*
%TO.P,R15,2*%
%TO.N,Net-(Q1-B)*%
X100809349Y-92292433D03*
%TD*%
D16*
%TO.P,TP5,1*%
%TO.N,/UART2_TX*%
X104101254Y-111100000D03*
%TD*%
D17*
%TO.P,D6,1*%
%TO.N,Net-(BZ1-+)*%
X98312615Y-94562325D03*
%TO.P,D6,2*%
%TO.N,Net-(BZ1--)*%
X101612615Y-94562325D03*
%TD*%
D18*
%TO.P,J7,1*%
%TO.N,GND*%
X94250000Y-107334936D03*
%TO.P,J7,2*%
X95250000Y-107334936D03*
%TO.P,J7,3*%
%TO.N,VBAT*%
X96250000Y-107334936D03*
%TO.P,J7,4*%
%TO.N,+10V*%
X97250000Y-107334936D03*
%TO.P,J7,5*%
%TO.N,/M4*%
X98250000Y-107334936D03*
%TO.P,J7,6*%
%TO.N,/M3*%
X99250000Y-107334936D03*
%TO.P,J7,7*%
%TO.N,/M2*%
X100250000Y-107334936D03*
%TO.P,J7,8*%
%TO.N,/M1*%
X101250000Y-107334936D03*
%TO.P,J7,9*%
%TO.N,/CURR_SENSE*%
X102250000Y-107334936D03*
%TO.P,J7,10*%
%TO.N,/UART2_RX*%
X103250000Y-107334936D03*
D19*
%TO.P,J7,MP*%
%TO.N,N/C*%
X92950000Y-103459936D03*
X104550000Y-103459936D03*
%TD*%
D20*
%TO.P,R16,1*%
%TO.N,Net-(Q1-B)*%
X103258652Y-92416925D03*
%TO.P,R16,2*%
%TO.N,GND*%
X103258652Y-94066925D03*
%TD*%
D16*
%TO.P,TP3,1*%
%TO.N,Net-(U3-PB4)*%
X107201254Y-109900000D03*
%TD*%
D21*
%TO.P,U2,1*%
%TO.N,GND*%
X112000000Y-103150000D03*
%TO.P,U2,2*%
%TO.N,+3V3*%
X109700000Y-103150000D03*
D22*
X109700000Y-96850000D03*
D21*
%TO.P,U2,3*%
%TO.N,+5V*%
X107400000Y-103150000D03*
%TD*%
D16*
%TO.P,TP4,1*%
%TO.N,Net-(U3-PD2)*%
X109901254Y-106300000D03*
%TD*%
%TO.P,TP2,1*%
%TO.N,Net-(U3-PB2)*%
X110101254Y-112350000D03*
%TD*%
D20*
%TO.P,R10,1*%
%TO.N,+3V3*%
X99484920Y-96596438D03*
%TO.P,R10,2*%
%TO.N,Net-(U6-~{HOLD}{slash}~{RESET}{slash}IO_{3})*%
X99484920Y-98246438D03*
%TD*%
D23*
%TO.P,Q1,1*%
%TO.N,Net-(Q1-B)*%
X99082342Y-90662433D03*
%TO.P,Q1,2*%
%TO.N,GND*%
X99082342Y-88762433D03*
%TO.P,Q1,3*%
%TO.N,Net-(BZ1--)*%
X100957342Y-89712433D03*
%TD*%
D24*
%TO.P,JP1,1*%
%TO.N,+3V3*%
X104500000Y-88475000D03*
D25*
%TO.P,JP1,2*%
%TO.N,/MCU/BOOT0*%
X104500000Y-89925000D03*
%TD*%
D26*
%TO.P,U6,1*%
%TO.N,/FLASH_CS*%
X87350000Y-99895000D03*
%TO.P,U6,2*%
%TO.N,/SPI2_MISO*%
X87350000Y-98625000D03*
%TO.P,U6,3*%
%TO.N,Net-(U6-~{WP}{slash}IO_{2})*%
X87350000Y-97355000D03*
%TO.P,U6,4*%
%TO.N,GND*%
X87350000Y-96085000D03*
%TO.P,U6,5*%
%TO.N,/SPI2_MOSI*%
X94650000Y-96085000D03*
%TO.P,U6,6*%
%TO.N,/SPI2_SCK*%
X94650000Y-97355000D03*
%TO.P,U6,7*%
%TO.N,Net-(U6-~{HOLD}{slash}~{RESET}{slash}IO_{3})*%
X94650000Y-98625000D03*
%TO.P,U6,8*%
%TO.N,+3V3*%
X94650000Y-99895000D03*
%TD*%
D15*
%TO.P,R9,1*%
%TO.N,+3V3*%
X96485000Y-99787791D03*
%TO.P,R9,2*%
%TO.N,Net-(U6-~{WP}{slash}IO_{2})*%
X98135000Y-99787791D03*
%TD*%
D27*
%TO.P,BZ1,*%
%TO.N,*%
X96050000Y-86450000D03*
X96050000Y-93550000D03*
%TO.P,BZ1,1*%
%TO.N,Net-(BZ1-+)*%
X88950000Y-93550000D03*
%TO.P,BZ1,2*%
%TO.N,Net-(BZ1--)*%
X88950000Y-86450000D03*
%TD*%
D28*
%TO.P,R17,1*%
%TO.N,+5V*%
X98531763Y-86856602D03*
%TO.P,R17,2*%
%TO.N,Net-(BZ1-+)*%
X100356763Y-86856602D03*
%TD*%
D20*
%TO.P,R3,1*%
%TO.N,/MCU/BOOT0*%
X103192615Y-96020502D03*
%TO.P,R3,2*%
%TO.N,GND*%
X103192615Y-97670502D03*
%TD*%
D16*
%TO.P,TP1,1*%
%TO.N,Net-(U3-PA8)*%
X109001254Y-93700000D03*
%TD*%
D20*
%TO.P,R8,1*%
%TO.N,+3V3*%
X97405228Y-96565304D03*
%TO.P,R8,2*%
%TO.N,/FLASH_CS*%
X97405228Y-98215304D03*
%TD*%
M02*
