M48
; DRILL file KiCad 10.0.5-10.0.5~ubuntu24.04.1 date 2026-08-18T20:56:55
; FORMAT={-:-/ absolute / metric / decimal}
; #@! TF.CreationDate,2026-08-18T20:56:55+02:00
; #@! TF.GenerationSoftware,Kicad,Pcbnew,10.0.5-10.0.5~ubuntu24.04.1
; #@! TF.FileFunction,Plated,1,4,PTH
FMAT,2
METRIC
; #@! TA.AperFunction,Plated,PTH,ComponentDrill
T1C0.600
; #@! TA.AperFunction,Plated,PTH,ComponentDrill
T2C0.800
; #@! TA.AperFunction,Plated,PTH,ComponentDrill
T3C1.000
%
G90
G05
T2
X83.6Y-88.5
X83.6Y-91.04
X83.6Y-93.58
X83.6Y-96.12
X83.6Y-98.66
X83.6Y-101.2
X83.6Y-103.74
X83.6Y-106.28
X83.6Y-108.82
X83.6Y-111.36
X89.84Y-83.6
X92.38Y-83.6
X94.92Y-83.6
X97.46Y-83.6
X100.0Y-83.6
X102.54Y-83.6
X105.08Y-83.6
X107.62Y-83.6
X110.16Y-83.6
X116.4Y-88.5
X116.4Y-91.04
X116.4Y-93.58
X116.4Y-96.12
X116.4Y-101.0
X116.4Y-103.54
X116.4Y-106.08
X116.4Y-108.62
T3
X101.96Y-115.685
X104.5Y-115.685
X107.04Y-115.685
T1
X88.83Y-110.025G85X88.83Y-111.125
G05
X88.83Y-114.455G85X88.83Y-115.055
G05
X97.47Y-110.025G85X97.47Y-111.125
G05
X97.47Y-114.455G85X97.47Y-115.055
G05
M30
