%TF.GenerationSoftware,KiCad,Pcbnew,10.0.5-10.0.5~ubuntu24.04.1*%
%TF.CreationDate,2026-08-18T20:56:55+02:00*%
%TF.ProjectId,mark4-fc,6d61726b-342d-4666-932e-6b696361645f,rev?*%
%TF.SameCoordinates,Original*%
%TF.FileFunction,Soldermask,Bot*%
%TF.FilePolarity,Negative*%
%FSLAX46Y46*%
G04 Gerber Fmt 4.6, Leading zero omitted, Abs format (unit mm)*
G04 Created by KiCad (PCBNEW 10.0.5-10.0.5~ubuntu24.04.1) date 2026-08-18 20:56:55*
%MOMM*%
%LPD*%
G01*
G04 APERTURE LIST*
G04 Aperture macros list*
%AMRoundRect*
0 Rectangle with rounded corners*
0 $1 Rounding radius*
0 $2 $3 $4 $5 $6 $7 $8 $9 X,Y pos of 4 corners*
0 Add a 4 corners polygon primitive as box body*
4,1,4,$2,$3,$4,$5,$6,$7,$8,$9,$2,$3,0*
0 Add four circle primitives for the rounded corners*
1,1,$1+$1,$2,$3*
1,1,$1+$1,$4,$5*
1,1,$1+$1,$6,$7*
1,1,$1+$1,$8,$9*
0 Add four rect primitives between the rounded corners*
20,1,$1+$1,$2,$3,$4,$5,0*
20,1,$1+$1,$4,$5,$6,$7,0*
20,1,$1+$1,$6,$7,$8,$9,0*
20,1,$1+$1,$8,$9,$2,$3,0*%
%AMFreePoly0*
4,1,6,1.000000,0.000000,0.500000,-0.750000,-0.500000,-0.750000,-0.500000,0.750000,0.500000,0.750000,1.000000,0.000000,1.000000,0.000000,$1*%
%AMFreePoly1*
4,1,6,0.500000,-0.750000,-0.650000,-0.750000,-0.150000,0.000000,-0.650000,0.750000,0.500000,0.750000,0.500000,-0.750000,0.500000,-0.750000,$1*%
G04 Aperture macros list end*
%ADD10C,1.600000*%
%ADD11C,3.200000*%
%ADD12C,0.650000*%
%ADD13O,1.000000X2.100000*%
%ADD14O,1.000000X1.600000*%
%ADD15R,1.700000X1.700000*%
%ADD16C,1.700000*%
%ADD17RoundRect,0.200000X-0.200000X-0.275000X0.200000X-0.275000X0.200000X0.275000X-0.200000X0.275000X0*%
%ADD18C,1.500000*%
%ADD19RoundRect,0.225000X-0.225000X-0.375000X0.225000X-0.375000X0.225000X0.375000X-0.225000X0.375000X0*%
%ADD20RoundRect,0.150000X-0.150000X-0.625000X0.150000X-0.625000X0.150000X0.625000X-0.150000X0.625000X0*%
%ADD21RoundRect,0.250000X-0.350000X-0.650000X0.350000X-0.650000X0.350000X0.650000X-0.350000X0.650000X0*%
%ADD22RoundRect,0.200000X-0.275000X0.200000X-0.275000X-0.200000X0.275000X-0.200000X0.275000X0.200000X0*%
%ADD23RoundRect,0.375000X0.375000X-0.625000X0.375000X0.625000X-0.375000X0.625000X-0.375000X-0.625000X0*%
%ADD24RoundRect,0.500000X1.400000X-0.500000X1.400000X0.500000X-1.400000X0.500000X-1.400000X-0.500000X0*%
%ADD25RoundRect,0.150000X-0.587500X-0.150000X0.587500X-0.150000X0.587500X0.150000X-0.587500X0.150000X0*%
%ADD26FreePoly0,270.000000*%
%ADD27FreePoly1,270.000000*%
%ADD28RoundRect,0.150000X-0.625000X-0.150000X0.625000X-0.150000X0.625000X0.150000X-0.625000X0.150000X0*%
%ADD29RoundRect,0.250001X-0.899999X-0.899999X0.899999X-0.899999X0.899999X0.899999X-0.899999X0.899999X0*%
%ADD30RoundRect,0.250000X-0.262500X-0.450000X0.262500X-0.450000X0.262500X0.450000X-0.262500X0.450000X0*%
G04 APERTURE END LIST*
%TO.C,JP1*%
G36*
X103750000Y-87975000D02*
G01*
X105250000Y-87975000D01*
X105250000Y-90425000D01*
X103750000Y-90425000D01*
X103750000Y-87975000D01*
G37*
%TD*%
D10*
%TO.C,J45*%
X102540000Y-83600000D03*
%TD*%
%TO.C,J48*%
X110160000Y-83600000D03*
%TD*%
%TO.C,J12*%
X116400000Y-106080000D03*
%TD*%
%TO.C,J47*%
X107620000Y-83600000D03*
%TD*%
%TO.C,J32*%
X116400000Y-93580000D03*
%TD*%
%TO.C,J42*%
X94920000Y-83600000D03*
%TD*%
D11*
%TO.C,MH3*%
X84750000Y-115250000D03*
%TD*%
D10*
%TO.C,J26*%
X83600000Y-103740000D03*
%TD*%
%TO.C,J31*%
X116400000Y-91040000D03*
%TD*%
%TO.C,J11*%
X116400000Y-103540000D03*
%TD*%
%TO.C,J46*%
X105080000Y-83600000D03*
%TD*%
D12*
%TO.C,J2*%
X90260000Y-111105001D03*
X96040000Y-111105001D03*
D13*
X88830000Y-110575001D03*
D14*
X88830000Y-114755001D03*
D13*
X97470000Y-110575001D03*
D14*
X97470000Y-114755001D03*
%TD*%
D10*
%TO.C,J20*%
X83600000Y-88500000D03*
%TD*%
D11*
%TO.C,MH2*%
X115250000Y-84750000D03*
%TD*%
D10*
%TO.C,J22*%
X83600000Y-93580000D03*
%TD*%
D15*
%TO.C,J1*%
X101960000Y-115685000D03*
D16*
X104500000Y-115685000D03*
X107040000Y-115685000D03*
%TD*%
D10*
%TO.C,J52*%
X83600000Y-111360000D03*
%TD*%
%TO.C,J13*%
X116400000Y-108620000D03*
%TD*%
%TO.C,J43*%
X97460000Y-83600000D03*
%TD*%
%TO.C,J33*%
X116400000Y-96120000D03*
%TD*%
%TO.C,J41*%
X92380000Y-83600000D03*
%TD*%
%TO.C,J23*%
X83600000Y-96120000D03*
%TD*%
D11*
%TO.C,MH4*%
X115250000Y-115250000D03*
%TD*%
D10*
%TO.C,J24*%
X83600000Y-98660000D03*
%TD*%
%TO.C,J40*%
X89840000Y-83600000D03*
%TD*%
%TO.C,J21*%
X83600000Y-91040000D03*
%TD*%
D11*
%TO.C,MH1*%
X84750000Y-84750000D03*
%TD*%
D10*
%TO.C,J44*%
X100000000Y-83600000D03*
%TD*%
%TO.C,J50*%
X83600000Y-106280000D03*
%TD*%
%TO.C,J51*%
X83600000Y-108820000D03*
%TD*%
%TO.C,J25*%
X83600000Y-101200000D03*
%TD*%
%TO.C,J10*%
X116400000Y-101000000D03*
%TD*%
%TO.C,J30*%
X116400000Y-88500000D03*
%TD*%
D17*
%TO.C,R15*%
X99159349Y-92292433D03*
X100809349Y-92292433D03*
%TD*%
D18*
%TO.C,TP5*%
X104101254Y-111100000D03*
%TD*%
D19*
%TO.C,D6*%
X98312615Y-94562325D03*
X101612615Y-94562325D03*
%TD*%
D20*
%TO.C,J7*%
X94250000Y-107334936D03*
X95250000Y-107334936D03*
X96250000Y-107334936D03*
X97250000Y-107334936D03*
X98250000Y-107334936D03*
X99250000Y-107334936D03*
X100250000Y-107334936D03*
X101250000Y-107334936D03*
X102250000Y-107334936D03*
X103250000Y-107334936D03*
D21*
X92950000Y-103459936D03*
X104550000Y-103459936D03*
%TD*%
D22*
%TO.C,R16*%
X103258652Y-92416925D03*
X103258652Y-94066925D03*
%TD*%
D18*
%TO.C,TP3*%
X107201254Y-109900000D03*
%TD*%
D23*
%TO.C,U2*%
X112000000Y-103150000D03*
X109700000Y-103150000D03*
D24*
X109700000Y-96850000D03*
D23*
X107400000Y-103150000D03*
%TD*%
D18*
%TO.C,TP4*%
X109901254Y-106300000D03*
%TD*%
%TO.C,TP2*%
X110101254Y-112350000D03*
%TD*%
D22*
%TO.C,R10*%
X99484920Y-96596438D03*
X99484920Y-98246438D03*
%TD*%
D25*
%TO.C,Q1*%
X99082342Y-90662433D03*
X99082342Y-88762433D03*
X100957342Y-89712433D03*
%TD*%
D26*
%TO.C,JP1*%
X104500000Y-88475000D03*
D27*
X104500000Y-89925000D03*
%TD*%
D28*
%TO.C,U6*%
X87350000Y-99895000D03*
X87350000Y-98625000D03*
X87350000Y-97355000D03*
X87350000Y-96085000D03*
X94650000Y-96085000D03*
X94650000Y-97355000D03*
X94650000Y-98625000D03*
X94650000Y-99895000D03*
%TD*%
D17*
%TO.C,R9*%
X96485000Y-99787791D03*
X98135000Y-99787791D03*
%TD*%
D29*
%TO.C,BZ1*%
X96050000Y-86450000D03*
X96050000Y-93550000D03*
X88950000Y-93550000D03*
X88950000Y-86450000D03*
%TD*%
D30*
%TO.C,R17*%
X98531763Y-86856602D03*
X100356763Y-86856602D03*
%TD*%
D22*
%TO.C,R3*%
X103192615Y-96020502D03*
X103192615Y-97670502D03*
%TD*%
D18*
%TO.C,TP1*%
X109001254Y-93700000D03*
%TD*%
D22*
%TO.C,R8*%
X97405228Y-96565304D03*
X97405228Y-98215304D03*
%TD*%
M02*
