%TF.GenerationSoftware,KiCad,Pcbnew,10.0.5-10.0.5~ubuntu24.04.1*%
%TF.CreationDate,2026-08-18T20:56:55+02:00*%
%TF.ProjectId,mark4-fc,6d61726b-342d-4666-932e-6b696361645f,rev?*%
%TF.SameCoordinates,Original*%
%TF.FileFunction,Paste,Bot*%
%TF.FilePolarity,Positive*%
%FSLAX46Y46*%
G04 Gerber Fmt 4.6, Leading zero omitted, Abs format (unit mm)*
G04 Created by KiCad (PCBNEW 10.0.5-10.0.5~ubuntu24.04.1) date 2026-08-18 20:56:55*
%MOMM*%
%LPD*%
G01*
G04 APERTURE LIST*
G04 Aperture macros list*
%AMRoundRect*
0 Rectangle with rounded corners*
0 $1 Rounding radius*
0 $2 $3 $4 $5 $6 $7 $8 $9 X,Y pos of 4 corners*
0 Add a 4 corners polygon primitive as box body*
4,1,4,$2,$3,$4,$5,$6,$7,$8,$9,$2,$3,0*
0 Add four circle primitives for the rounded corners*
1,1,$1+$1,$2,$3*
1,1,$1+$1,$4,$5*
1,1,$1+$1,$6,$7*
1,1,$1+$1,$8,$9*
0 Add four rect primitives between the rounded corners*
20,1,$1+$1,$2,$3,$4,$5,0*
20,1,$1+$1,$4,$5,$6,$7,0*
20,1,$1+$1,$6,$7,$8,$9,0*
20,1,$1+$1,$8,$9,$2,$3,0*%
G04 Aperture macros list end*
%ADD10RoundRect,0.200000X-0.200000X-0.275000X0.200000X-0.275000X0.200000X0.275000X-0.200000X0.275000X0*%
%ADD11RoundRect,0.225000X-0.225000X-0.375000X0.225000X-0.375000X0.225000X0.375000X-0.225000X0.375000X0*%
%ADD12RoundRect,0.150000X-0.150000X-0.625000X0.150000X-0.625000X0.150000X0.625000X-0.150000X0.625000X0*%
%ADD13RoundRect,0.250000X-0.350000X-0.650000X0.350000X-0.650000X0.350000X0.650000X-0.350000X0.650000X0*%
%ADD14RoundRect,0.200000X-0.275000X0.200000X-0.275000X-0.200000X0.275000X-0.200000X0.275000X0.200000X0*%
%ADD15RoundRect,0.375000X0.375000X-0.625000X0.375000X0.625000X-0.375000X0.625000X-0.375000X-0.625000X0*%
%ADD16RoundRect,0.500000X1.400000X-0.500000X1.400000X0.500000X-1.400000X0.500000X-1.400000X-0.500000X0*%
%ADD17RoundRect,0.150000X-0.587500X-0.150000X0.587500X-0.150000X0.587500X0.150000X-0.587500X0.150000X0*%
%ADD18RoundRect,0.150000X-0.625000X-0.150000X0.625000X-0.150000X0.625000X0.150000X-0.625000X0.150000X0*%
%ADD19RoundRect,0.250001X-0.899999X-0.899999X0.899999X-0.899999X0.899999X0.899999X-0.899999X0.899999X0*%
%ADD20RoundRect,0.250000X-0.262500X-0.450000X0.262500X-0.450000X0.262500X0.450000X-0.262500X0.450000X0*%
G04 APERTURE END LIST*
D10*
%TO.C,R15*%
X99159349Y-92292433D03*
X100809349Y-92292433D03*
%TD*%
D11*
%TO.C,D6*%
X98312615Y-94562325D03*
X101612615Y-94562325D03*
%TD*%
D12*
%TO.C,J7*%
X94250000Y-107334936D03*
X95250000Y-107334936D03*
X96250000Y-107334936D03*
X97250000Y-107334936D03*
X98250000Y-107334936D03*
X99250000Y-107334936D03*
X100250000Y-107334936D03*
X101250000Y-107334936D03*
X102250000Y-107334936D03*
X103250000Y-107334936D03*
D13*
X92950000Y-103459936D03*
X104550000Y-103459936D03*
%TD*%
D14*
%TO.C,R16*%
X103258652Y-92416925D03*
X103258652Y-94066925D03*
%TD*%
D15*
%TO.C,U2*%
X112000000Y-103150000D03*
X109700000Y-103150000D03*
D16*
X109700000Y-96850000D03*
D15*
X107400000Y-103150000D03*
%TD*%
D14*
%TO.C,R10*%
X99484920Y-96596438D03*
X99484920Y-98246438D03*
%TD*%
D17*
%TO.C,Q1*%
X99082342Y-90662433D03*
X99082342Y-88762433D03*
X100957342Y-89712433D03*
%TD*%
D18*
%TO.C,U6*%
X87350000Y-99895000D03*
X87350000Y-98625000D03*
X87350000Y-97355000D03*
X87350000Y-96085000D03*
X94650000Y-96085000D03*
X94650000Y-97355000D03*
X94650000Y-98625000D03*
X94650000Y-99895000D03*
%TD*%
D10*
%TO.C,R9*%
X96485000Y-99787791D03*
X98135000Y-99787791D03*
%TD*%
D19*
%TO.C,BZ1*%
X96050000Y-86450000D03*
X96050000Y-93550000D03*
X88950000Y-93550000D03*
X88950000Y-86450000D03*
%TD*%
D20*
%TO.C,R17*%
X98531763Y-86856602D03*
X100356763Y-86856602D03*
%TD*%
D14*
%TO.C,R3*%
X103192615Y-96020502D03*
X103192615Y-97670502D03*
%TD*%
%TO.C,R8*%
X97405228Y-96565304D03*
X97405228Y-98215304D03*
%TD*%
M02*
