%TF.GenerationSoftware,KiCad,Pcbnew,10.0.5-10.0.5~ubuntu24.04.1*%
%TF.CreationDate,2026-08-18T20:56:55+02:00*%
%TF.ProjectId,mark4-fc,6d61726b-342d-4666-932e-6b696361645f,rev?*%
%TF.SameCoordinates,Original*%
%TF.FileFunction,Paste,Top*%
%TF.FilePolarity,Positive*%
%FSLAX46Y46*%
G04 Gerber Fmt 4.6, Leading zero omitted, Abs format (unit mm)*
G04 Created by KiCad (PCBNEW 10.0.5-10.0.5~ubuntu24.04.1) date 2026-08-18 20:56:55*
%MOMM*%
%LPD*%
G01*
G04 APERTURE LIST*
G04 Aperture macros list*
%AMRoundRect*
0 Rectangle with rounded corners*
0 $1 Rounding radius*
0 $2 $3 $4 $5 $6 $7 $8 $9 X,Y pos of 4 corners*
0 Add a 4 corners polygon primitive as box body*
4,1,4,$2,$3,$4,$5,$6,$7,$8,$9,$2,$3,0*
0 Add four circle primitives for the rounded corners*
1,1,$1+$1,$2,$3*
1,1,$1+$1,$4,$5*
1,1,$1+$1,$6,$7*
1,1,$1+$1,$8,$9*
0 Add four rect primitives between the rounded corners*
20,1,$1+$1,$2,$3,$4,$5,0*
20,1,$1+$1,$4,$5,$6,$7,0*
20,1,$1+$1,$6,$7,$8,$9,0*
20,1,$1+$1,$8,$9,$2,$3,0*%
G04 Aperture macros list end*
%ADD10RoundRect,0.225000X-0.225000X-0.375000X0.225000X-0.375000X0.225000X0.375000X-0.225000X0.375000X0*%
%ADD11RoundRect,0.225000X0.250000X-0.225000X0.250000X0.225000X-0.250000X0.225000X-0.250000X-0.225000X0*%
%ADD12RoundRect,0.225000X-0.225000X-0.250000X0.225000X-0.250000X0.225000X0.250000X-0.225000X0.250000X0*%
%ADD13RoundRect,0.200000X-0.200000X-0.275000X0.200000X-0.275000X0.200000X0.275000X-0.200000X0.275000X0*%
%ADD14RoundRect,0.200000X0.275000X-0.200000X0.275000X0.200000X-0.275000X0.200000X-0.275000X-0.200000X0*%
%ADD15R,0.350000X0.350000*%
%ADD16RoundRect,0.150000X-0.512500X-0.150000X0.512500X-0.150000X0.512500X0.150000X-0.512500X0.150000X0*%
%ADD17RoundRect,0.150000X-0.150000X-0.575000X0.150000X-0.575000X0.150000X0.575000X-0.150000X0.575000X0*%
%ADD18RoundRect,0.075000X-0.075000X-0.650000X0.075000X-0.650000X0.075000X0.650000X-0.075000X0.650000X0*%
%ADD19RoundRect,0.087500X-0.225000X-0.087500X0.225000X-0.087500X0.225000X0.087500X-0.225000X0.087500X0*%
%ADD20RoundRect,0.087500X-0.087500X-0.225000X0.087500X-0.225000X0.087500X0.225000X-0.087500X0.225000X0*%
%ADD21RoundRect,0.250000X-0.250000X-0.475000X0.250000X-0.475000X0.250000X0.475000X-0.250000X0.475000X0*%
%ADD22RoundRect,0.075000X-0.700000X-0.075000X0.700000X-0.075000X0.700000X0.075000X-0.700000X0.075000X0*%
%ADD23RoundRect,0.075000X-0.075000X-0.700000X0.075000X-0.700000X0.075000X0.700000X-0.075000X0.700000X0*%
%ADD24RoundRect,0.250000X0.475000X-0.250000X0.475000X0.250000X-0.475000X0.250000X-0.475000X-0.250000X0*%
%ADD25RoundRect,0.218750X-0.218750X-0.256250X0.218750X-0.256250X0.218750X0.256250X-0.218750X0.256250X0*%
%ADD26RoundRect,0.249999X-0.450001X-1.850001X0.450001X-1.850001X0.450001X1.850001X-0.450001X1.850001X0*%
%ADD27RoundRect,0.250000X-0.450000X-0.350000X0.450000X-0.350000X0.450000X0.350000X-0.450000X0.350000X0*%
%ADD28RoundRect,0.050000X-0.285000X-0.100000X0.285000X-0.100000X0.285000X0.100000X-0.285000X0.100000X0*%
G04 APERTURE END LIST*
D10*
%TO.C,D3*%
X89150000Y-98207799D03*
X92450000Y-98207799D03*
%TD*%
D11*
%TO.C,C17*%
X97135862Y-103770424D03*
X97135862Y-102220424D03*
%TD*%
D12*
%TO.C,C21*%
X104707688Y-113035000D03*
X106257688Y-113035000D03*
%TD*%
D13*
%TO.C,R11*%
X102919512Y-108756496D03*
X104569512Y-108756496D03*
%TD*%
D11*
%TO.C,C8*%
X91900000Y-87075000D03*
X91900000Y-85525000D03*
%TD*%
D14*
%TO.C,R4*%
X87778953Y-105407182D03*
X87778953Y-103757182D03*
%TD*%
%TO.C,R21*%
X103186745Y-107221073D03*
X103186745Y-105571073D03*
%TD*%
D15*
%TO.C,U5*%
X90725000Y-103375000D03*
X91375000Y-103375000D03*
X92025000Y-103375000D03*
X92675000Y-103375000D03*
X92675000Y-104825000D03*
X92025000Y-104825000D03*
X91375000Y-104825000D03*
X90725000Y-104825000D03*
%TD*%
D11*
%TO.C,C18*%
X89900000Y-87175000D03*
X89900000Y-85625000D03*
%TD*%
D16*
%TO.C,U1*%
X109822500Y-90050000D03*
X109822500Y-91000000D03*
X109822500Y-91950000D03*
X112097500Y-91950000D03*
X112097500Y-91000000D03*
X112097500Y-90050000D03*
%TD*%
D17*
%TO.C,J2*%
X89900000Y-109660001D03*
X90700000Y-109660001D03*
D18*
X91900000Y-109660001D03*
X92900000Y-109660001D03*
X93400000Y-109660001D03*
X94400000Y-109660001D03*
D17*
X95600000Y-109660001D03*
X96400000Y-109660001D03*
X96400000Y-109660001D03*
X95600000Y-109660001D03*
D18*
X94900000Y-109660001D03*
X93900000Y-109660001D03*
X92400000Y-109660001D03*
X91400000Y-109660001D03*
D17*
X90700000Y-109660001D03*
X89900000Y-109660001D03*
%TD*%
D19*
%TO.C,U4*%
X98837500Y-99250000D03*
X98837500Y-99750000D03*
X98837500Y-100250000D03*
X98837500Y-100750000D03*
D20*
X99500000Y-100912500D03*
X100000000Y-100912500D03*
X100500000Y-100912500D03*
D19*
X101162500Y-100750000D03*
X101162500Y-100250000D03*
X101162500Y-99750000D03*
X101162500Y-99250000D03*
D20*
X100500000Y-99087500D03*
X100000000Y-99087500D03*
X99500000Y-99087500D03*
%TD*%
D14*
%TO.C,R2*%
X107581377Y-94382403D03*
X107581377Y-92732403D03*
%TD*%
D21*
%TO.C,C25*%
X90550000Y-107000000D03*
X92450000Y-107000000D03*
%TD*%
%TO.C,C5*%
X85600000Y-88468532D03*
X87500000Y-88468532D03*
%TD*%
D12*
%TO.C,C1*%
X110125000Y-88300000D03*
X111675000Y-88300000D03*
%TD*%
D22*
%TO.C,U3*%
X94325000Y-87750000D03*
X94325000Y-88250000D03*
X94325000Y-88750000D03*
X94325000Y-89250000D03*
X94325000Y-89750000D03*
X94325000Y-90250000D03*
X94325000Y-90750000D03*
X94325000Y-91250000D03*
X94325000Y-91750000D03*
X94325000Y-92250000D03*
X94325000Y-92750000D03*
X94325000Y-93250000D03*
X94325000Y-93750000D03*
X94325000Y-94250000D03*
X94325000Y-94750000D03*
X94325000Y-95250000D03*
D23*
X96250000Y-97175000D03*
X96750000Y-97175000D03*
X97250000Y-97175000D03*
X97750000Y-97175000D03*
X98250000Y-97175000D03*
X98750000Y-97175000D03*
X99250000Y-97175000D03*
X99750000Y-97175000D03*
X100250000Y-97175000D03*
X100750000Y-97175000D03*
X101250000Y-97175000D03*
X101750000Y-97175000D03*
X102250000Y-97175000D03*
X102750000Y-97175000D03*
X103250000Y-97175000D03*
X103750000Y-97175000D03*
D22*
X105675000Y-95250000D03*
X105675000Y-94750000D03*
X105675000Y-94250000D03*
X105675000Y-93750000D03*
X105675000Y-93250000D03*
X105675000Y-92750000D03*
X105675000Y-92250000D03*
X105675000Y-91750000D03*
X105675000Y-91250000D03*
X105675000Y-90750000D03*
X105675000Y-90250000D03*
X105675000Y-89750000D03*
X105675000Y-89250000D03*
X105675000Y-88750000D03*
X105675000Y-88250000D03*
X105675000Y-87750000D03*
D23*
X103750000Y-85825000D03*
X103250000Y-85825000D03*
X102750000Y-85825000D03*
X102250000Y-85825000D03*
X101750000Y-85825000D03*
X101250000Y-85825000D03*
X100750000Y-85825000D03*
X100250000Y-85825000D03*
X99750000Y-85825000D03*
X99250000Y-85825000D03*
X98750000Y-85825000D03*
X98250000Y-85825000D03*
X97750000Y-85825000D03*
X97250000Y-85825000D03*
X96750000Y-85825000D03*
X96250000Y-85825000D03*
%TD*%
D12*
%TO.C,C23*%
X107879328Y-112339241D03*
X109429328Y-112339241D03*
%TD*%
D11*
%TO.C,C13*%
X101282670Y-110152304D03*
X101282670Y-108602304D03*
%TD*%
D24*
%TO.C,C12*%
X85841777Y-105776938D03*
X85841777Y-103876938D03*
%TD*%
D13*
%TO.C,R19*%
X108743822Y-101162318D03*
X110393822Y-101162318D03*
%TD*%
D14*
%TO.C,R6*%
X87378127Y-101752384D03*
X87378127Y-100102384D03*
%TD*%
D12*
%TO.C,C10*%
X95225000Y-99400000D03*
X96775000Y-99400000D03*
%TD*%
D16*
%TO.C,U7*%
X94662500Y-105550000D03*
X94662500Y-106500000D03*
X94662500Y-107450000D03*
X96937500Y-107450000D03*
X96937500Y-106500000D03*
X96937500Y-105550000D03*
%TD*%
D25*
%TO.C,D4*%
X102355994Y-104036073D03*
X103930994Y-104036073D03*
%TD*%
D24*
%TO.C,C3*%
X114140000Y-90450000D03*
X114140000Y-88550000D03*
%TD*%
D11*
%TO.C,C19*%
X89900000Y-94375000D03*
X89900000Y-92825000D03*
%TD*%
D21*
%TO.C,C6*%
X109749934Y-116257214D03*
X111649934Y-116257214D03*
%TD*%
D25*
%TO.C,D5*%
X102100273Y-102399812D03*
X103675273Y-102399812D03*
%TD*%
D26*
%TO.C,L1*%
X110450000Y-97050000D03*
X114150000Y-97050000D03*
%TD*%
D13*
%TO.C,R5*%
X87225484Y-107406938D03*
X88875484Y-107406938D03*
%TD*%
D12*
%TO.C,C20*%
X112817766Y-100835050D03*
X114367766Y-100835050D03*
%TD*%
%TO.C,C11*%
X106525000Y-99300000D03*
X108075000Y-99300000D03*
%TD*%
D11*
%TO.C,C9*%
X91900000Y-94975000D03*
X91900000Y-93425000D03*
%TD*%
%TO.C,C15*%
X85530000Y-102115000D03*
X85530000Y-100565000D03*
%TD*%
D14*
%TO.C,R12*%
X99504258Y-110409479D03*
X99504258Y-108759479D03*
%TD*%
D27*
%TO.C,Y1*%
X89400000Y-90850000D03*
X91600000Y-90850000D03*
X91600000Y-89150000D03*
X89400000Y-89150000D03*
%TD*%
D21*
%TO.C,C2*%
X101134258Y-112098583D03*
X103034258Y-112098583D03*
%TD*%
D14*
%TO.C,R20*%
X108279670Y-97563751D03*
X108279670Y-95913751D03*
%TD*%
D13*
%TO.C,R14*%
X105505000Y-101580000D03*
X107155000Y-101580000D03*
%TD*%
D12*
%TO.C,C7*%
X98804833Y-104185425D03*
X100354833Y-104185425D03*
%TD*%
D13*
%TO.C,R1*%
X88664523Y-96176048D03*
X90314523Y-96176048D03*
%TD*%
%TO.C,R7*%
X85544795Y-98220426D03*
X87194795Y-98220426D03*
%TD*%
D14*
%TO.C,R18*%
X107600000Y-90225000D03*
X107600000Y-88575000D03*
%TD*%
D12*
%TO.C,C24*%
X110832445Y-106957753D03*
X112382445Y-106957753D03*
%TD*%
D21*
%TO.C,C16*%
X102750000Y-99400000D03*
X104650000Y-99400000D03*
%TD*%
D11*
%TO.C,C14*%
X107600000Y-87065000D03*
X107600000Y-85515000D03*
%TD*%
%TO.C,C22*%
X85530000Y-109422400D03*
X85530000Y-107872400D03*
%TD*%
D24*
%TO.C,C4*%
X114217445Y-107010392D03*
X114217445Y-105110392D03*
%TD*%
D14*
%TO.C,R13*%
X106080000Y-104905000D03*
X106080000Y-103255000D03*
%TD*%
D21*
%TO.C,C26*%
X85550000Y-90578532D03*
X87450000Y-90578532D03*
%TD*%
D28*
%TO.C,U8*%
X109220000Y-85350000D03*
X109220000Y-85850000D03*
X109220000Y-86350000D03*
X109220000Y-86850000D03*
X110700000Y-86850000D03*
X110700000Y-86350000D03*
X110700000Y-85850000D03*
X110700000Y-85350000D03*
%TD*%
M02*
